<svg width="1400" height="430" viewBox="0 0 1400 430" fill="none" xmlns="http://www.w3.org/2000/svg" role="img" aria-labelledby="title desc">
  <title id="title">Biophysics and AI research banner</title>
  <desc id="desc">A soft cinematic banner with molecular orbitals, simulation traces, and a quiet sunrise over a research notebook.</desc>
  <defs>
    <linearGradient id="sky" x1="0" y1="0" x2="1400" y2="430" gradientUnits="userSpaceOnUse">
      <stop offset="0" stop-color="#10172A"/>
      <stop offset="0.42" stop-color="#312E81"/>
      <stop offset="0.73" stop-color="#446C94"/>
      <stop offset="1" stop-color="#F1D7A7"/>
    </linearGradient>
    <radialGradient id="glow" cx="0" cy="0" r="1" gradientUnits="userSpaceOnUse" gradientTransform="translate(1040 278) rotate(159) scale(520 260)">
      <stop stop-color="#FFF4CC" stop-opacity="0.72"/>
      <stop offset="0.43" stop-color="#A5B4FC" stop-opacity="0.22"/>
      <stop offset="1" stop-color="#111827" stop-opacity="0"/>
    </radialGradient>
    <linearGradient id="line" x1="160" y1="124" x2="1240" y2="334" gradientUnits="userSpaceOnUse">
      <stop stop-color="#C4B5FD" stop-opacity="0.1"/>
      <stop offset="0.52" stop-color="#BAE6FD" stop-opacity="0.8"/>
      <stop offset="1" stop-color="#FDE68A" stop-opacity="0.28"/>
    </linearGradient>
    <filter id="soft" x="-20%" y="-20%" width="140%" height="140%" color-interpolation-filters="sRGB">
      <feGaussianBlur stdDeviation="14"/>
    </filter>
  </defs>

  <rect width="1400" height="430" rx="34" fill="url(#sky)"/>
  <rect width="1400" height="430" rx="34" fill="url(#glow)"/>

  <circle cx="1002" cy="274" r="86" fill="#FDE68A" opacity="0.3" filter="url(#soft)"/>
  <circle cx="1012" cy="274" r="46" fill="#FDE68A" opacity="0.82"/>
  <path d="M0 319C147 279 246 306 392 292C542 278 650 206 792 220C931 234 999 322 1137 313C1247 306 1307 269 1400 256V430H0V319Z" fill="#0F172A" opacity="0.44"/>
  <path d="M0 352C179 317 285 349 434 329C583 309 664 261 796 278C918 294 1015 364 1156 355C1266 349 1333 316 1400 309V430H0V352Z" fill="#0B1120" opacity="0.62"/>

  <g opacity="0.92">
    <path d="M192 152C290 111 359 153 450 137C539 122 577 55 661 78C742 100 761 178 849 182C942 187 982 113 1072 138C1153 161 1197 236 1274 214" stroke="url(#line)" stroke-width="2.2"/>
    <path d="M206 224C322 190 380 231 486 213C586 196 606 143 700 158C804 175 844 242 938 234C1049 224 1110 163 1244 191" stroke="#DDD6FE" stroke-opacity="0.42" stroke-width="1.6" stroke-dasharray="8 12"/>
  </g>

  <g stroke="#E0F2FE" stroke-opacity="0.72" stroke-width="2">
    <line x1="260" y1="176" x2="337" y2="127"/>
    <line x1="337" y1="127" x2="419" y2="164"/>
    <line x1="419" y1="164" x2="501" y2="116"/>
    <line x1="337" y1="127" x2="365" y2="222"/>
    <line x1="365" y1="222" x2="452" y2="240"/>
  </g>
  <g>
    <circle cx="260" cy="176" r="13" fill="#BAE6FD"/>
    <circle cx="337" cy="127" r="18" fill="#C4B5FD"/>
    <circle cx="419" cy="164" r="12" fill="#FDE68A"/>
    <circle cx="501" cy="116" r="16" fill="#A7F3D0"/>
    <circle cx="365" cy="222" r="15" fill="#F0ABFC"/>
    <circle cx="452" cy="240" r="10" fill="#E0F2FE"/>
  </g>

  <g opacity="0.95">
    <rect x="745" y="108" width="326" height="174" rx="18" fill="#0B1120" opacity="0.48" stroke="#C4B5FD" stroke-opacity="0.35"/>
    <path d="M782 153H913M782 188H1032M782 223H972" stroke="#E0E7FF" stroke-opacity="0.76" stroke-width="7" stroke-linecap="round"/>
    <path d="M1110 158C1154 132 1198 132 1242 158C1198 184 1154 184 1110 158Z" stroke="#FDE68A" stroke-opacity="0.72" stroke-width="2"/>
    <circle cx="1176" cy="158" r="8" fill="#FDE68A"/>
    <path d="M1138 199C1181 177 1220 183 1255 218C1204 236 1165 230 1138 199Z" stroke="#BAE6FD" stroke-opacity="0.68" stroke-width="2"/>
  </g>

  <g fill="#FFFFFF">
    <circle cx="111" cy="88" r="2.6" opacity="0.62"/>
    <circle cx="178" cy="255" r="1.9" opacity="0.52"/>
    <circle cx="635" cy="51" r="2.2" opacity="0.72"/>
    <circle cx="1166" cy="84" r="2.4" opacity="0.7"/>
    <circle cx="1283" cy="130" r="1.7" opacity="0.62"/>
    <circle cx="928" cy="57" r="1.9" opacity="0.56"/>
  </g>

  <text x="86" y="336" fill="#F8FAFC" font-family="Georgia, 'Times New Roman', serif" font-size="38" letter-spacing="0">Biophysics x Molecular Simulation x AI Research Tools</text>
  <text x="90" y="374" fill="#DBEAFE" font-family="Inter, Arial, sans-serif" font-size="18" letter-spacing="2">JACKY LIN · DUKE KUNSHAN UNIVERSITY</text>
</svg>
